PathFileType	4	(X/Y/Z)	..\data\2014014\dynamic\2014014_C4_05.trc
DataRate	CameraRate	NumFrames	NumMarkers	Units	OrigDataRate	OrigDataStartFrame	OrigNumFrames
100.000000	100.000000	4	52	mm	100.000000	90	180
Frame#	Time	L_IAS			L_IPS			R_IPS			R_IAS			L_FTC			L_FLE			L_FME			L_FAX			L_TTC			L_FAL			L_TAM			L_FCC			L_FM1			L_FM2			L_FM5			R_FTC			R_FLE			R_FME			R_FAX			R_TTC			R_FAL			R_TAM			R_FCC			R_FM1			R_FM2			R_FM5			CV7			TV10			SXS			SJN			L_SIA			L_SRS			L_SAA			L_SAE			L_HLE			L_HME			L_UOA			L_RSP			L_UHE			L_HM2			L_HM5			R_SIA			R_SRS			R_SAA			R_SAE			R_HLE			R_HME			R_UOA			R_RSP			R_UHE			R_HM2			R_HM5			
		X1	Y1	Z1	X2	Y2	Z2	X3	Y3	Z3	X4	Y4	Z4	X5	Y5	Z5	X6	Y6	Z6	X7	Y7	Z7	X8	Y8	Z8	X9	Y9	Z9	X10	Y10	Z10	X11	Y11	Z11	X12	Y12	Z12	X13	Y13	Z13	X14	Y14	Z14	X15	Y15	Z15	X16	Y16	Z16	X17	Y17	Z17	X18	Y18	Z18	X19	Y19	Z19	X20	Y20	Z20	X21	Y21	Z21	X22	Y22	Z22	X23	Y23	Z23	X24	Y24	Z24	X25	Y25	Z25	X26	Y26	Z26	X27	Y27	Z27	X28	Y28	Z28	X29	Y29	Z29	X30	Y30	Z30	X31	Y31	Z31	X32	Y32	Z32	X33	Y33	Z33	X34	Y34	Z34	X35	Y35	Z35	X36	Y36	Z36	X37	Y37	Z37	X38	Y38	Z38	X39	Y39	Z39	X40	Y40	Z40	X41	Y41	Z41	X42	Y42	Z42	X43	Y43	Z43	X44	Y44	Z44	X45	Y45	Z45	X46	Y46	Z46	X47	Y47	Z47	X48	Y48	Z48	X49	Y49	Z49	X50	Y50	Z50	X51	Y51	Z51	X52	Y52	Z52	

91	0.9	-217.9610900878907	1003.828063964844	134.9475402832031	-426.858612060547	1018.731689453125	209.1027221679688	-429.2554321289064	1017.439025878906	314.0300903320312	-227.264129638672	1001.059204101563	389.4178466796876	-294.9313354492188	904.372009277344	64.60980987548825	-191.0984497070313	517.0035400390626	64.6995162963867	-166.2381896972657	497.4224243164064	199.9402160644532	-236.3419494628907	478.0826416015626	67.18544006347655	-174.7260131835938	424.4197692871095	105.6114120483398	-491.172088623047	217.5826110839844	126.6647262573242	-434.8675842285157	212.9610748291016	213.8416748046875	-547.6281127929689	209.6706237792969	197.112060546875	-405.4894104003907	69.71298980712892	189.7650604248047	-396.506317138672	86.59355926513673	134.3757934570312	-453.7974853515626	107.2331924438477	91.80863952636714	-294.1284790039064	897.1866455078127	448.0241394042969	-293.2093200683595	485.3538208007814	365.4932861328125	-265.120574951172	497.012908935547	239.5818786621094	-313.6870117187501	431.1889038085939	369.5816955566406	-246.1971588134766	423.8611145019532	319.8511657714844	-353.6941833496095	60.28160476684572	344.0336608886719	-316.6863098144532	88.40500640869142	249.3722686767578	-391.6145324707033	21.98653221130371	280.3964538574219	-185.6517639160157	19.46507835388184	265.5583496093751	-184.5986328125001	36.39456939697266	324.5501708984376	-233.8692779541017	18.50227546691895	380.5359191894531	-374.864715576172	1543.920532226563	286.0213928222656	-469.564910888672	1297.855224609375	258.1372375488281	-199.2302856445313	1267.424194335938	269.1022338867188	-249.0066680908204	1448.411376953125	287.0093994140625	-483.6329345703126	1333.07080078125	148.5764770507812	-443.4362182617189	1479.787475585938	161.3346862792968	-396.9961853027345	1483.478271484375	99.60644531249999	-347.2317199707032	1480.852172851563	74.88216400146482	-372.8640747070313	1148.037719726563	-35.2223625183106	-419.4355773925782	1138.232421875	45.86765289306636	-416.7794799804689	1127.739624023438	-12.37018680572515	-270.8259582519532	898.2600097656252	23.39888191223142	-338.0091552734376	891.9526367187502	-40.34420776367192	-241.2160949707032	811.8504028320315	14.15848255157468	-340.1006164550782	807.9666137695315	-42.11372375488286	-491.7984924316408	1317.716918945313	381.2511596679688	-437.7745971679689	1455	405.3273620605469	-397.342742919922	1433.93017578125	473.7799682617188	-349.8374023437501	1429.323120117188	493.4000549316407	-345.1811523437501	1085.437255859375	554.1099853515626	-375.5383300781251	1076.011596679688	456.6480407714844	-387.781707763672	1066.181884765625	524.8852539062501	-242.5228729248048	841.8406372070315	489.6008911132813	-305.9171447753907	838.0767211914065	555.5592041015626	-204.1583709716798	751.7155761718751	510.2229614257814	-310.4466247558595	740.4075927734376	546.8614501953126	
92	0.91	-207.6706848144532	1005.10498046875	136.5549926757812	-416.8537902832032	1019.787719726563	209.2756652832031	-419.4549865722658	1018.055053710938	314.3815002441406	-218.0946044921876	1000.903747558594	390.707244873047	-282.7395629882813	906.3625488281252	65.03624725341795	-173.5496520996094	519.8371582031251	66.59480285644531	-148.9073791503907	501.396453857422	201.7430572509766	-217.4333496093751	479.0985412597657	69.01232147216795	-154.5992431640625	427.8206176757814	107.86376953125	-463.2142028808595	209.0626373291016	127.6350555419922	-407.4007568359376	207.3939971923829	215.3446044921875	-520.1645507812501	198.3877258300782	197.8354034423828	-370.5097045898438	66.45230865478517	191.6734313964843	-362.2136230468751	83.84665679931642	136.443862915039	-420.0762023925782	101.0439071655274	93.35988616943355	-285.8542785644532	896.5316162109377	448.2617492675782	-290.688446044922	485.2438354492189	365.3966674804688	-262.4319152832032	496.5496215820314	239.4808349609375	-311.6031494140626	431.3069458007814	369.4087219238281	-244.1348266601563	423.3694763183595	319.7116394042969	-353.7763061523439	60.40621566772462	343.9396667480469	-316.4741210937501	88.60292053222658	249.410873413086	-391.5875244140627	22.1270809173584	280.3148193359375	-185.6232299804688	19.43762588500977	265.6629333496094	-184.6033782958985	36.34197616577149	324.7138366699219	-233.8689270019532	18.48249053955078	380.6344299316406	-364.311004638672	1544.440795898438	286.3053894042969	-459.2093811035158	1298.4130859375	259.4932556152344	-188.9496612548829	1267.879150390625	269.7172241210938	-238.3865509033204	1448.984130859375	287.1191101074219	-473.7666931152345	1333.273681640625	150.0464630126953	-433.4894409179689	1479.91943359375	162.3303833007812	-387.4519958496095	1483.474487304688	100.3846740722656	-337.8494873046876	1480.785522460938	75.34385681152341	-365.8045349121094	1148.047485351563	-34.23047256469732	-411.6502075195314	1138.546142578125	47.38000869750972	-409.6743469238282	1128.192504882813	-10.94409751892095	-266.5653381347657	896.9322509765627	22.74015617370603	-334.4836120605469	891.7036743164065	-40.41297531127935	-238.5135650634766	809.9338378906252	13.07885742187498	-337.7391052246094	807.7839965820315	-42.42185974121099	-480.7596740722658	1318.726806640625	383.0261535644531	-426.7954406738283	1456.034545898438	406.2369384765626	-386.0475463867189	1435.259765625	474.6029052734376	-338.4266967773439	1430.807373046875	494.0100097656251	-330.8941955566407	1087.120483398438	555.7132568359376	-362.6441955566407	1077.192016601563	458.8216247558594	-373.7153320312501	1067.347534179688	526.8535156250001	-227.2130889892579	844.055603027344	490.973114013672	-289.6981506347657	840.0991821289065	557.5833740234376	-187.6609649658204	754.4357910156251	511.4953002929689	-293.5154113769532	742.3825073242189	549.3809204101564	
93	0.92	-197.345199584961	1006.073364257813	138.1613006591797	-406.8298339843751	1020.644470214844	209.3804168701172	-409.679168701172	1018.509216308594	314.5770568847656	-208.9969024658204	1000.56640625	392.009246826172	-270.4234619140626	908.1477050781252	65.43103027343749	-156.5414581298828	522.3033447265626	68.61029815673828	-132.3725280761719	505.0419311523439	203.627426147461	-198.9623718261719	479.5874633789064	70.93383026123045	-134.9430236816407	430.9068908691407	110.3116302490235	-434.531219482422	199.5092010498047	128.6276092529297	-379.3446655273438	200.970199584961	216.8823699951172	-491.7724914550782	186.0738372802735	198.6286010742188	-334.8915405273438	62.7723846435547	193.5985717773438	-327.4110717773438	80.51673126220705	138.52587890625	-385.7113037109376	94.18886566162111	94.93034362792966	-277.6448364257814	895.7552490234377	448.4786376953126	-288.1528320312501	485.1063232421876	365.3099670410156	-259.7212219238282	496.0513610839845	239.4231719970703	-309.5106201171876	431.4183349609376	369.2469177246094	-242.0632629394532	422.8391418457032	319.5830993652344	-353.8620605468751	60.54011917114259	343.8359375	-316.2708435058595	88.7849578857422	249.4367980957032	-391.5359802246095	22.24054336547852	280.2034912109375	-185.5924072265626	19.43965530395508	265.7763977050782	-184.606430053711	36.3193473815918	324.8850708007813	-233.8639678955079	18.47722816467286	380.7378845214844	-353.7430114746095	1544.793823242188	286.5019226074219	-448.8187561035158	1298.801025390625	260.7743530273438	-178.6304473876954	1268.167358398438	270.3501281738282	-227.7580718994141	1449.40234375	287.2026977539063	-463.8611145019532	1333.318481445313	151.4911041259765	-423.4938354492189	1479.875610351563	163.2523803710937	-377.8520202636719	1483.2724609375	101.1099243164062	-328.4226684570313	1480.519897460938	75.77064514160153	-358.7145690917969	1147.894287109375	-33.25134658813482	-403.8183898925782	1138.66650390625	48.8958702087402	-402.5204467773439	1128.461547851563	-9.513326644897512	-262.2694091796876	895.4575805664065	22.07257270812985	-330.9666137695313	891.2940673828127	-40.40316390991216	-235.7375946044922	807.9387817382815	11.91744232177732	-335.3510131835938	807.4651489257815	-42.66307067871099	-469.7117309570314	1319.550415039063	384.6676025390626	-415.8370971679689	1456.904174804688	407.0472106933594	-374.8154602050782	1436.44091796875	475.3385314941407	-327.0939331054689	1432.153198242188	494.5592956542969	-316.7833251953126	1088.696044921875	557.3146362304689	-349.7168884277345	1078.244506835938	460.9171447753907	-359.7505493164064	1068.369384765625	528.7604370117189	-211.7724456787111	846.2728271484377	492.357879638672	-273.4694213867189	842.0418090820315	559.5447998046876	-171.0559234619141	757.1663818359376	512.7549438476564	-276.5031738281251	744.2768554687501	551.7426757812501	
94	0.93	-186.9990844726563	1006.736938476563	139.7188415527344	-396.7927246093751	1021.297912597656	209.4457550048828	-399.9305725097658	1018.796875	314.6350402832031	-199.9464263916017	1000.036926269531	393.2926635742189	-258.0755920410157	909.703063964844	65.79759979248045	-140.1047668457032	524.3580322265626	70.71012115478516	-116.6827621459962	508.2977294921876	205.5711059570313	-180.97607421875	479.5410461425782	72.93411254882811	-115.8134231567383	433.6535034179689	112.8988037109375	-405.0954895019532	189.0944213867188	129.6462707519531	-350.6550598144532	193.7798309326172	218.4216461181641	-462.3703613281251	172.8999481201172	199.5188903808594	-298.6383361816407	58.7533531188965	195.3638763427735	-292.1175537109376	76.74020385742189	140.4428558349609	-350.7451782226563	86.87277984619142	96.41099548339842	-269.4808349609376	894.8597412109377	448.6736450195313	-285.5704345703126	484.9318847656251	365.2287902832031	-256.9435424804689	495.5163879394532	239.403305053711	-307.3823852539064	431.5134277343751	369.0911254882812	-239.9592742919923	422.2565307617189	319.4683837890625	-353.9449462890626	60.68198394775392	343.7226257324219	-316.0856323242189	88.93267822265626	249.4376678466797	-391.4632568359377	22.32788848876953	280.0623474121094	-185.5564117431641	19.46774673461914	265.8949279785157	-184.6070709228516	36.31883239746094	325.0577087402344	-233.8531036376954	18.47804260253907	380.8415222167969	-343.1474914550782	1544.975952148438	286.6145935058594	-438.3895874023439	1299.019653320313	261.972900390625	-168.2755432128907	1268.268676757813	270.9792480468751	-217.1150665283204	1449.650390625	287.2553405761719	-453.911834716797	1333.201171875	152.9045715332031	-413.4378967285157	1479.659301757813	164.0961456298828	-368.1823425292969	1482.873168945313	101.7768173217773	-318.9356384277344	1480.051147460938	76.15852355957028	-351.5688476562501	1147.568603515625	-32.28234481811528	-395.921600341797	1138.590209960938	50.40363311767575	-395.2915344238282	1128.543334960938	-8.082514762878468	-257.9139099121094	893.8306884765627	21.40446281433103	-327.4254760742188	890.7196044921877	-40.31195831298833	-232.8565521240235	805.8620605468752	10.70018959045407	-332.9174194335938	806.9963989257815	-42.82543563842778	-458.6573791503908	1320.189453125	386.1756591796876	-404.879608154297	1457.605224609375	407.7631530761719	-363.6188964843751	1437.458618164063	475.9888610839844	-315.8094482421876	1433.335815429688	495.0455017089844	-302.8564758300782	1090.132690429688	558.9171142578126	-336.7557067871095	1079.138793945313	462.9335021972657	-345.9011535644532	1069.224975585938	530.6232910156251	-196.2086791992189	848.4708251953127	493.7564392089845	-257.2434082031251	843.877380371094	561.4436645507814	-154.3519134521485	759.8868408203126	514.0159912109376	-259.422088623047	746.0623168945314	553.9383544921876	
